<svg width="20" height="20" viewBox="0 0 20 20" fill="none" xmlns="http://www.w3.org/2000/svg">
<g clip-path="url(#clip0_106_198)">
<mask id="mask0_106_198" style="mask-type:luminance" maskUnits="userSpaceOnUse" x="0" y="0" width="20" height="20">
<path d="M20 0H0V20H20V0Z" fill="white"/>
</mask>
<g mask="url(#mask0_106_198)">
<mask id="mask1_106_198" style="mask-type:luminance" maskUnits="userSpaceOnUse" x="0" y="0" width="20" height="20">
<path d="M20 0H0V20H20V0Z" fill="white"/>
</mask>
<g mask="url(#mask1_106_198)">
<path d="M15.824 3.70703C15.731 3.70703 15.6402 3.73459 15.5629 3.78624C15.4856 3.83788 15.4253 3.91129 15.3898 3.99717C15.3542 4.08305 15.3449 4.17755 15.363 4.26872C15.3812 4.35989 15.4259 4.44365 15.4917 4.50938C15.5574 4.57511 15.6411 4.61986 15.7323 4.638C15.8235 4.65614 15.918 4.64683 16.0039 4.61126C16.0898 4.57569 16.1631 4.51544 16.2148 4.43815C16.2664 4.36086 16.294 4.26999 16.294 4.17703C16.294 4.11531 16.2819 4.05419 16.2582 3.99717C16.2346 3.94015 16.2 3.88834 16.1563 3.8447C16.1127 3.80105 16.0609 3.76643 16.0039 3.74281C15.9469 3.71919 15.8857 3.70703 15.824 3.70703Z" fill="white"/>
<path d="M9.9999 5.83301C9.17654 5.83301 8.37167 6.07716 7.68707 6.5346C7.00247 6.99203 6.46889 7.64221 6.1538 8.4029C5.83872 9.16359 5.75627 10.0006 5.9169 10.8082C6.07753 11.6157 6.47402 12.3575 7.05622 12.9397C7.63843 13.5219 8.38021 13.9184 9.18775 14.079C9.9953 14.2396 10.8323 14.1572 11.593 13.8421C12.3537 13.527 13.0039 12.9934 13.4613 12.3088C13.9188 11.6242 14.1629 10.8194 14.1629 9.99601C14.1616 8.89232 13.7226 7.83422 12.9421 7.05379C12.1617 6.27337 11.1036 5.83434 9.9999 5.83301Z" fill="white"/>
<path d="M14.517 0H5.483C4.02931 0.00158816 2.63561 0.57977 1.60769 1.60769C0.57977 2.63561 0.00158816 4.02931 0 5.483V14.518C0.00185278 15.9715 0.580151 17.365 1.60804 18.3927C2.63593 19.4204 4.02948 19.9984 5.483 20H14.518C15.9715 19.9981 17.365 19.4198 18.3927 18.392C19.4204 17.3641 19.9984 15.9705 20 14.517V5.483C19.9984 4.02931 19.4202 2.63561 18.3923 1.60769C17.3644 0.57977 15.9707 0.00158816 14.517 0ZM10 15.486C8.91497 15.486 7.85431 15.1643 6.95214 14.5614C6.04997 13.9586 5.34682 13.1018 4.9316 12.0994C4.51637 11.097 4.40773 9.99391 4.61941 8.92973C4.83109 7.86555 5.35358 6.88804 6.12081 6.12081C6.88804 5.35358 7.86555 4.83109 8.92973 4.61941C9.99391 4.40773 11.097 4.51637 12.0994 4.9316C13.1018 5.34682 13.9586 6.04997 14.5614 6.95214C15.1643 7.85431 15.486 8.91497 15.486 10C15.4844 11.4545 14.9059 12.849 13.8774 13.8774C12.849 14.9059 11.4545 15.4844 10 15.486ZM15.814 5.853C15.4843 5.8532 15.1619 5.7556 14.8876 5.57255C14.6133 5.38949 14.3995 5.12921 14.2732 4.82463C14.1469 4.52004 14.1137 4.18483 14.1779 3.8614C14.2421 3.53797 14.4008 3.24084 14.6339 3.00761C14.867 2.77437 15.164 2.61551 15.4874 2.5511C15.8108 2.4867 16.146 2.51966 16.4507 2.6458C16.7554 2.77194 17.0158 2.9856 17.199 3.25976C17.3822 3.53392 17.48 3.85626 17.48 4.186C17.4795 4.62778 17.3038 5.05133 16.9915 5.36381C16.6792 5.67629 16.2558 5.85221 15.814 5.853Z" fill="white"/>
</g>
</g>
</g>
<defs>
<clipPath id="clip0_106_198">
<rect width="20" height="20" fill="white"/>
</clipPath>
</defs>
</svg>
