<svg width="24" height="24" viewBox="0 0 24 24" fill="none" xmlns="http://www.w3.org/2000/svg">
<g clip-path="url(#clip0_106_341)">
<path d="M1.99986 21.9999L3.35186 17.0319C2.12907 14.9332 1.71191 12.4613 2.17827 10.0775C2.64462 7.69384 3.96261 5.56134 5.88614 4.07824C7.80967 2.59513 10.2072 1.86281 12.6312 2.01801C15.0551 2.1732 17.3397 3.20531 19.0584 4.92162C20.7771 6.63792 21.8123 8.92109 21.9709 11.3448C22.1294 13.7685 21.4004 16.1671 19.92 18.0927C18.4395 20.0183 16.3089 21.3392 13.9258 21.8089C11.5427 22.2785 9.0702 21.8648 6.96985 20.6449L1.99986 21.9999ZM8.39085 7.30788C8.26172 7.3159 8.13553 7.34991 8.01986 7.40788C7.91138 7.46931 7.81235 7.5461 7.72585 7.63588C7.62981 7.72981 7.54246 7.83222 7.46486 7.94188C7.09527 8.42288 6.89646 9.0133 6.89986 9.61988C6.90994 10.1088 7.02236 10.5901 7.22986 11.0329C7.71852 12.0566 8.3856 12.9851 9.19985 13.7749C9.41385 13.9879 9.62285 14.2019 9.84785 14.4009C10.9512 15.3723 12.2661 16.0729 13.6879 16.4469L14.2569 16.5339C14.4423 16.539 14.6279 16.5347 14.8129 16.5209C15.1041 16.5058 15.3885 16.427 15.6459 16.2899C15.8119 16.2019 15.8899 16.1579 16.0289 16.0699C16.0289 16.0699 16.0719 16.0419 16.1539 15.9799C16.2728 15.8946 16.3833 15.7982 16.4839 15.6919C16.5695 15.6038 16.6404 15.5025 16.6939 15.3919C16.7896 15.1572 16.8528 14.9106 16.8819 14.6589C16.8984 14.5353 16.9031 14.4104 16.8959 14.2859C16.8888 14.2294 16.8678 14.1755 16.8346 14.1292C16.8014 14.0829 16.7571 14.0457 16.7059 14.0209L16.1239 13.7599C16.1239 13.7599 15.2539 13.3809 14.7239 13.1389C14.6679 13.1145 14.6079 13.1006 14.5469 13.0979C14.4784 13.0909 14.4093 13.0986 14.3441 13.1205C14.2789 13.1424 14.2192 13.178 14.1689 13.2249C13.8865 13.5221 13.6195 13.8335 13.3689 14.1579C13.3274 14.2136 13.2702 14.2558 13.2047 14.2789C13.1391 14.3021 13.0682 14.3052 13.0009 14.2879C12.9357 14.2705 12.8719 14.2484 12.8099 14.2219C12.6859 14.1699 12.6429 14.1499 12.5579 14.1129H12.5529C11.9808 13.8631 11.4511 13.5257 10.9829 13.1129C10.8569 13.0029 10.7399 12.8829 10.6199 12.7669C10.2261 12.3882 9.88318 11.96 9.59986 11.4929L9.54086 11.3929C9.49954 11.3305 9.46596 11.2634 9.44086 11.1929C9.43101 11.1469 9.43137 11.0994 9.44191 11.0536C9.45245 11.0078 9.47291 10.9649 9.50185 10.9279C9.50185 10.9279 9.74485 10.6619 9.85785 10.5179C9.95194 10.3982 10.0397 10.2737 10.1209 10.1449C10.1771 10.069 10.2148 9.981 10.231 9.88792C10.2471 9.79484 10.2413 9.69928 10.2139 9.60888C9.93785 8.92488 9.64952 8.24455 9.34886 7.56788C9.30798 7.49802 9.25097 7.43896 9.1826 7.39564C9.11423 7.35232 9.03648 7.326 8.95586 7.31888C8.90186 7.31288 8.84785 7.30688 8.79385 7.30288C8.66064 7.29499 8.52707 7.29499 8.39386 7.30288L8.39085 7.30788Z" fill="white"/>
</g>
<defs>
<clipPath id="clip0_106_341">
<rect width="24" height="24" fill="white"/>
</clipPath>
</defs>
</svg>
